<svg xmlns="http://www.w3.org/2000/svg" version="1.1" xmlns:xlink="http://www.w3.org/1999/xlink" xmlns:svgjs="http://svgjs.dev/svgjs" width="128" height="128" viewBox="0 0 128 128"><g transform="matrix(0.8046875,0,0,0.8046875,12.333870967741937,29.802640050133647)"><svg viewBox="0 0 155 104" data-background-color="#ffffff" preserveAspectRatio="xMidYMid meet" height="85" width="128" xmlns="http://www.w3.org/2000/svg" xmlns:xlink="http://www.w3.org/1999/xlink"><g id="tight-bounds" transform="matrix(1,0,0,1,0.25,-0.0028263103802572687)"><svg viewBox="0 0 154.5 104.00565262076051" height="104.00565262076051" width="154.5"><g><svg viewBox="0 0 154.5 104.00565262076051" height="104.00565262076051" width="154.5"><g><svg viewBox="0 0 154.5 104.00565262076051" height="104.00565262076051" width="154.5"><g id="textblocktransform"><svg viewBox="0 0 154.5 104.00565262076051" height="104.00565262076051" width="154.5" id="textblock"><g><svg viewBox="0 0 154.5 104.00565262076051" height="104.00565262076051" width="154.5"><g transform="matrix(1,0,0,1,0,0)"><svg width="154.5" viewBox="-10.8 -32 48.650000000000006 32.75" height="104.00565262076051" data-palette-color="#ee2b5a"><g class="wordmark-text-0" data-fill-palette-color="primary" id="text-0"><path d="M37.1-18.2L34.15-1.5Q28.05 0.75 21.9 0.75 15.75 0.75 13.03-1.7 10.3-4.15 10.3-9.25L10.3-9.25Q10.3-11.4 11-15.6L11-15.6Q12.5-24.3 16.3-28.15 20.1-32 28.9-32L28.9-32Q30.8-32 33.65-31.6 36.5-31.2 37.85-30.7L37.85-30.7 35.1-23.05Q31.35-23.75 28.23-23.75 25.1-23.75 23.75-23.25 22.4-22.75 22.15-21.25L22.15-21.25 19.7-7.1 22.85-7.1Q24.55-7.1 25.38-7.48 26.2-7.85 26.45-9.2L26.45-9.2 26.7-10.55 24.3-10.55 25.65-18.2 37.1-18.2ZM9.75-16.85L9.6-15.85Q9.5-15.45 9.4-14.75L9.4-14.75-10.25-16.85 9.75-16.85ZM-10.8-12.05L9.05-12.05Q8.9-10.9 8.9-9.95L8.9-9.95-10.8-12.05ZM-9.05-21.65L10.95-21.65 10.35-19.6-9.05-21.65ZM-10.15-7.25L8.95-7.25Q9.15-5.85 9.3-5.15L9.3-5.15-10.15-7.25ZM-6.7-26.45L13-26.45Q12.3-25.15 12-24.45L12-24.45-6.7-26.45ZM-5.35-2.4L10.45-2.4Q11.1-1.25 11.95-0.55L11.95-0.55-5.35-2.4ZM0.2-31.25L17.75-31.25Q16.3-30.35 15.5-29.6L15.5-29.6 0.2-31.25Z" fill="#ee2b5a" data-fill-palette-color="primary"></path></g></svg></g></svg></g></svg></g></svg></g></svg></g><defs></defs></svg><rect width="154.5" height="104.00565262076051" fill="none" stroke="none" visibility="hidden"></rect></g></svg></g></svg>